<svg width="384" height="384" viewBox="0 0 384 384" fill="none" xmlns="http://www.w3.org/2000/svg">
<g clip-path="url(#clip0_198_185)">
<path d="M303.382 0.00720215V29.0837L0.0185547 152.881V0.00720215H303.382Z" fill="#9AF7E0"/>
<path d="M383.999 117.811V305.571L191.834 383.988H89.5021L0.0185547 271.702V152.881L303.382 29.0836L383.999 117.811Z" fill="#EFFFF7"/>
<path d="M322.421 116.159C322.421 116.159 320.785 122.83 307.164 129.745C306.14 130.275 305.031 130.804 303.835 131.331L303.286 131.577C286.087 139.103 289.957 148.131 284.366 148.131C284.366 148.131 281.928 137.379 275.085 125.118C274.263 123.649 273.378 122.163 272.428 120.66C271.061 118.506 269.552 116.34 267.897 114.209C264.221 109.425 259.924 105.152 255.121 101.502C253.467 100.259 251.748 99.1054 249.971 98.0462C248.241 97.0222 246.55 96.0314 244.899 95.074C233.525 88.523 224.098 83.9034 217.358 80.866C210.005 77.5521 205.838 76.1198 205.838 76.1198C205.838 76.1198 210.197 70.7438 219.01 64.9377C227.822 59.1316 234.919 47.9534 234.919 47.9534C234.919 47.9534 263.143 51.6052 281.072 63.4362C283.487 65.0044 285.743 66.8049 287.807 68.8122C289.017 70.0065 290.153 71.2007 291.232 72.3988C296.29 78.0052 300.03 83.6577 303.443 89.241C308.409 97.3626 312.66 105.338 319.276 112.83C320.269 113.949 321.317 115.059 322.421 116.159Z" fill="#A9F8E9"/>
<path d="M267.893 114.209C265.704 114.132 263.543 114.028 261.442 113.898C253.213 113.375 245.836 112.392 240.767 110.703C230.599 107.316 221.917 106.544 215.754 106.628C209.51 106.709 205.85 107.669 205.85 107.669C205.85 107.669 204.898 102.113 209.445 92.0095C210.677 89.3367 212.239 86.8289 214.095 84.5446C215.118 83.2607 216.206 82.0303 217.355 80.8582C224.094 83.8956 233.521 88.5151 244.895 95.0662C246.547 96.0134 248.238 97.0041 249.968 98.0383C257.279 102.412 263.193 108.164 267.893 114.209Z" fill="#A9F8E9"/>
<path d="M325.386 86.0382C324.376 91.1838 319.28 112.818 319.28 112.818C312.683 105.327 308.417 97.3547 303.452 89.2331C300.038 83.6497 296.298 77.9973 291.24 72.3909C294.228 72.9791 297.167 73.789 300.034 74.8139C305.887 76.9042 311.627 79.2998 317.23 81.9909C322.045 84.268 325.386 86.0382 325.386 86.0382Z" fill="#A9F8E9"/>
<path d="M317.218 81.9833C309.814 78.485 298.916 73.7695 291.233 72.3833C290.154 71.1852 289.017 69.9909 287.807 68.7967C285.743 66.7894 283.487 64.9888 281.072 63.4207L285.895 62.5913L306.189 59.0085C306.189 59.0085 309.726 61.6965 310.736 68.2821C310.965 69.673 311.336 71.0369 311.842 72.3525C313.727 77.3791 317.087 81.8105 317.218 81.9833Z" fill="#A9F8E9"/>
<path d="M272.424 120.66C272.424 120.66 267.881 121.385 261.315 122.476C254.748 123.566 246.089 125.018 237.96 126.466C227.761 128.282 218.353 130.091 214.747 131.162C214.747 131.162 212.524 123.785 214.117 113.606C214.486 111.242 215.032 108.909 215.753 106.628C221.897 106.544 230.598 107.316 240.767 110.702C241.688 111.01 242.683 111.294 243.75 111.555C250.04 113.091 258.692 113.886 267.893 114.208C269.567 116.351 271.057 118.505 272.424 120.66Z" fill="#A9F8E9"/>
<path d="M280.649 146.883C273.228 142.008 265.034 138.426 256.415 136.288C252.686 135.347 248.896 134.668 245.072 134.257C244.354 133.412 243.651 132.606 242.983 131.857C240.133 128.655 237.964 126.481 237.964 126.481C254.196 123.59 272.428 120.675 272.428 120.675C273.38 122.173 274.267 123.666 275.085 125.137L272.424 129.522C272.424 129.522 278.898 133.347 280.649 146.883Z" fill="#A9F8E9"/>
<path d="M277.977 130.717C277.804 130.356 277.628 129.991 277.447 129.626C277.539 129.803 277.624 129.979 277.708 130.152C277.793 130.325 277.893 130.529 277.977 130.717Z" fill="#9AF7E0"/>
<path d="M284.083 146.999C284.036 146.841 283.99 146.668 283.94 146.48C283.994 146.688 284.04 146.841 284.083 146.999Z" fill="#9AF7E0"/>
<path d="M383.999 305.571V316.269L218.053 383.988H191.834L383.999 305.571Z" fill="#7BF8DA"/>
<path d="M89.5018 383.988H0.0183105V271.702L89.5018 383.988Z" fill="#A9F8E9"/>
<path d="M384 0.00695801V117.81L303.383 29.0834V0.00695801H384Z" fill="#7BF8DA"/>
<path d="M294.873 273.707L289.685 276.425L144.245 352.642L19.8982 189.342L18.9267 188.067L14.2266 181.892L151.702 119.239L294.873 273.707Z" fill="#A9F8E9"/>
<path d="M265.578 257.176C265.578 257.176 254.734 262.459 243.333 266.63C234.885 269.725 228.552 280.477 216.879 288.091C212.462 291 207.588 293.145 202.46 294.439C180.479 299.999 129.023 295.829 109.57 274.417C90.1166 253.005 60.468 196.104 36.4795 180.617C36.4795 180.617 45.4689 176.996 57.7339 171.916C62.1153 170.104 66.9192 168.099 71.8766 166.01C75.874 164.328 79.9713 162.589 84.0379 160.845C100.442 153.803 116.294 146.683 122.63 142.886C123.805 142.183 124.934 141.446 125.986 140.689C138.789 131.573 143.765 119.247 143.765 119.247C143.765 119.247 159.152 143.312 169.904 156.495C186.067 176.336 222.754 214.072 241.943 229.631C261.131 245.191 265.578 257.176 265.578 257.176Z" fill="white"/>
<path d="M127.645 150.224C127.668 150.6 127.574 150.975 127.374 151.295C127.175 151.615 126.88 151.865 126.531 152.009L84.0491 169.535L75.2402 173.183C74.9783 173.292 74.6947 173.337 74.4121 173.315C74.1296 173.294 73.8561 173.206 73.6138 173.059C73.3715 172.912 73.1672 172.71 73.0174 172.469C72.8677 172.229 72.7767 171.956 72.7518 171.674C72.5845 169.773 72.2959 167.885 71.8878 166.022C69.8557 156.668 64.903 148.203 57.7451 141.849L111.302 119.753C111.66 119.603 112.054 119.56 112.437 119.628C112.82 119.696 113.175 119.873 113.46 120.137C121.836 127.997 126.908 138.75 127.645 150.212V150.224Z" fill="#A9F8E9"/>
<path d="M71.8878 166.006C66.9304 168.095 62.1265 170.1 57.7451 171.912C50.4491 153.016 57.7451 141.833 57.7451 141.833C64.903 148.188 69.8557 156.653 71.8878 166.006Z" fill="#7BF8DA"/>
<path d="M147.006 188.102C150.533 188.102 153.392 185.243 153.392 181.716C153.392 178.189 150.533 175.33 147.006 175.33C143.479 175.33 140.62 178.189 140.62 181.716C140.62 185.243 143.479 188.102 147.006 188.102Z" fill="#A9F8E9"/>
<path d="M108.429 206.069C111.956 206.069 114.815 203.21 114.815 199.683C114.815 196.156 111.956 193.297 108.429 193.297C104.903 193.297 102.043 196.156 102.043 199.683C102.043 203.21 104.903 206.069 108.429 206.069Z" fill="#A9F8E9"/>
<path d="M120.007 235.729C119.221 235.819 118.431 235.593 117.811 235.101C117.192 234.61 116.792 233.892 116.701 233.106C116.612 232.338 114.754 214.398 133.213 204.095C143.611 198.285 152.582 199.51 158.272 201.561C161.975 202.872 165.378 204.911 168.279 207.559C168.843 208.119 169.161 208.88 169.164 209.675C169.166 210.469 168.853 211.233 168.293 211.796C167.733 212.36 166.972 212.678 166.177 212.681C165.382 212.683 164.619 212.37 164.055 211.81C163.583 211.349 152.082 200.409 136.123 209.321C121.243 217.631 122.58 231.831 122.645 232.431C122.729 233.217 122.499 234.005 122.005 234.623C121.511 235.241 120.793 235.638 120.007 235.729Z" fill="#A9F8E9"/>
<path d="M216.871 288.091C212.454 291 207.58 293.145 202.452 294.439C180.48 299.999 129.024 295.829 109.57 274.417C109.57 274.417 145.148 281.448 155.669 259.848C155.669 259.848 175.065 297.772 216.871 288.091Z" fill="#7BF8DA"/>
<path d="M345.215 223.487C344.434 223.487 343.657 223.369 342.911 223.138L300.287 209.813C299.309 209.526 298.398 209.047 297.608 208.404C296.817 207.761 296.162 206.967 295.681 206.068C295.2 205.169 294.903 204.184 294.807 203.169C294.711 202.154 294.817 201.131 295.121 200.158C295.424 199.185 295.919 198.282 296.575 197.502C297.231 196.722 298.035 196.08 298.942 195.614C299.848 195.148 300.839 194.867 301.855 194.788C302.871 194.709 303.893 194.832 304.861 195.152L347.515 208.458C349.272 209.003 350.775 210.161 351.75 211.721C352.725 213.281 353.108 215.139 352.829 216.957C352.55 218.775 351.627 220.433 350.229 221.628C348.832 222.824 347.051 223.478 345.211 223.472L345.215 223.487Z" fill="#7BF8DA"/>
<path d="M383.999 211.311V242.722C382.61 242.681 381.232 242.448 379.906 242.031L343.752 232.077C339.865 230.863 336.619 228.155 334.728 224.548C332.837 220.941 332.456 216.731 333.669 212.843C334.881 208.956 337.588 205.709 341.193 203.817C344.798 201.925 349.008 201.541 352.895 202.751L383.999 211.311Z" fill="#9AF7E0"/>
<path d="M294.332 158.952C293.374 157.818 292.369 156.717 291.317 155.65C288.078 152.362 284.502 149.424 280.65 146.883C273.228 142.008 265.034 138.426 256.415 136.288C252.686 135.347 248.896 134.668 245.072 134.257C233.479 133.013 222.14 134.365 212.286 138.255C198.351 143.753 188.95 153.615 185.817 166.041C184.793 170.094 184.479 174.295 184.888 178.456C185.709 186.93 189.461 195.375 195.939 203.055C204.99 213.784 218.453 221.832 233.855 225.711C240.271 227.341 246.862 228.174 253.482 228.191C262.149 228.191 270.497 226.697 277.985 223.744C291.92 218.242 301.32 208.384 304.454 195.958C304.896 194.21 305.206 192.431 305.383 190.636C306.431 179.853 302.622 168.779 294.332 158.952ZM289.877 190.69C289.793 191.2 289.685 191.707 289.558 192.226C287.669 199.718 281.556 205.842 272.348 209.479C262.256 213.461 249.922 213.945 237.615 210.838C225.308 207.732 214.675 201.457 207.682 193.174C203.669 188.42 201.204 183.382 200.386 178.432C199.896 175.57 200.004 172.638 200.705 169.819C202.594 162.328 208.707 156.199 217.916 152.566C223.618 150.316 230.035 149.183 236.758 149.183C242.125 149.192 247.47 149.864 252.671 151.184C253.969 151.512 255.249 151.874 256.511 152.271C262.836 154.228 268.801 157.198 274.175 161.064C277.28 163.319 280.105 165.935 282.593 168.856C288.545 175.917 291.102 183.609 289.877 190.69Z" fill="#9AF7E0"/>
<path d="M289.877 190.694C289.792 191.204 289.685 191.711 289.558 192.23C287.669 199.722 281.556 205.846 272.347 209.483C262.256 213.465 249.922 213.949 237.615 210.842C225.307 207.736 214.674 201.461 207.682 193.178C203.669 188.424 201.204 183.386 200.386 178.436C200.47 177.926 200.578 177.423 200.704 176.92C202.594 169.428 208.707 163.299 217.915 159.666C223.618 157.416 230.034 156.283 236.758 156.283C242.125 156.292 247.47 156.964 252.671 158.284C264.982 161.387 275.611 167.665 282.623 175.948C286.601 180.71 289.067 185.748 289.877 190.694Z" fill="white"/>
<path d="M304.454 203.066C301.32 215.485 291.92 225.338 277.985 230.852C270.497 233.805 262.148 235.295 253.482 235.295C246.863 235.28 240.271 234.448 233.855 232.818C218.453 228.932 204.99 220.884 195.939 210.162C187.652 200.336 183.824 189.257 184.888 178.467C185.709 186.942 189.461 195.386 195.939 203.066C204.99 213.795 218.453 221.844 233.855 225.722C240.271 227.353 246.862 228.186 253.482 228.203C262.148 228.203 270.497 226.709 277.985 223.756C291.92 218.253 301.32 208.396 304.454 195.97C304.895 194.221 305.206 192.442 305.383 190.648C305.792 194.81 305.478 199.011 304.454 203.066Z" fill="#7BF8DA"/>
<path d="M289.877 190.693C289.067 185.748 286.601 180.709 282.581 175.956C275.584 167.665 264.955 161.387 252.629 158.292C247.436 156.965 242.099 156.286 236.739 156.268C230.015 156.268 223.598 157.401 217.896 159.651C208.68 163.284 202.574 169.412 200.685 176.904C200.558 177.407 200.451 177.91 200.366 178.421C199.876 175.559 199.985 172.626 200.685 169.808C202.574 162.316 208.688 156.187 217.896 152.555C223.598 150.304 230.015 149.172 236.739 149.172C242.112 149.183 247.464 149.86 252.671 151.188C264.982 154.29 275.611 160.569 282.623 168.852C288.544 175.921 291.102 183.612 289.877 190.693Z" fill="#7BF8DA"/>
<path d="M116.021 362.434C116.041 362.606 116.018 362.78 115.954 362.941C115.891 363.102 115.789 363.244 115.657 363.356C115.525 363.468 115.368 363.546 115.199 363.583C115.03 363.62 114.855 363.614 114.688 363.567C111.989 362.789 109.407 361.654 107.008 360.192C104.431 358.64 102.04 356.799 99.8813 354.704C97.3008 352.265 94.7882 349.769 92.3434 347.216C88.68 343.407 85.1485 339.475 81.7488 335.42C77.9088 330.704 72.9168 324.81 67.5946 318.612C64.0503 314.496 60.3562 310.245 56.7543 306.121C51.1248 299.658 45.6951 293.51 41.4711 288.664C35.7111 282.067 24.0951 268.654 18.385 262.007L28.8644 252.894C40.8912 266.415 54.7229 282.689 67.9671 297.984C71.496 302.05 74.9789 306.048 78.3812 309.888C81.2573 313.152 84.072 316.312 86.7984 319.334C92.3511 325.359 97.9344 331.653 103.065 338.15C105.227 340.892 107.316 343.668 109.293 346.491C112.63 351.141 115.276 356.651 116.021 362.434Z" fill="#9AF7E0"/>
<path d="M29.7937 275.224C29.7937 275.224 34.7128 268.461 37.2472 270.719C39.7816 272.977 57.8564 296.766 62.9214 292.146C70.0254 285.661 36.1451 248.605 32.9464 247.952C29.1064 247.184 20.067 253.197 17.6785 258.704C17.4712 259.194 17.4056 259.733 17.4891 260.259C17.5726 260.785 17.8018 261.278 18.1508 261.68L29.7937 275.224Z" fill="#7BF8DA"/>
<path d="M78.3966 309.887C75.5026 313.569 71.8139 316.549 67.6062 318.604C64.0619 314.488 60.3678 310.237 56.7659 306.112C57.8594 305.92 58.9301 305.615 59.9607 305.202C63.2324 303.878 65.9127 301.458 67.9825 297.972C71.5115 302.046 74.9944 306.047 78.3966 309.887Z" fill="#7BF8DA"/>
<path d="M116.021 362.434C116.041 362.606 116.018 362.78 115.955 362.94C115.891 363.101 115.789 363.244 115.657 363.356C115.525 363.468 115.368 363.546 115.199 363.583C115.03 363.619 114.855 363.614 114.688 363.567C111.99 362.789 109.407 361.653 107.008 360.191C104.431 358.64 102.04 356.799 99.8814 354.704C97.3009 352.264 94.7883 349.768 92.3435 347.216C92.3435 347.216 101.126 346.344 103.069 338.177C105.231 340.918 107.32 343.695 109.297 346.517C112.63 351.14 115.276 356.651 116.021 362.434Z" fill="#7BF8DA"/>
<path d="M30.4236 261.227C29.6545 261.893 28.6522 262.227 27.6369 262.155C26.6217 262.083 25.6765 261.611 25.0092 260.843L8.15158 241.259C7.54476 240.48 7.26131 239.497 7.3601 238.515C7.45889 237.532 7.93234 236.626 8.68211 235.983C9.43187 235.341 10.4003 235.012 11.3863 235.064C12.3723 235.117 13.3001 235.548 13.9769 236.267L30.8268 255.851C31.4792 256.62 31.8026 257.615 31.7272 258.621C31.6518 259.627 31.1835 260.563 30.4236 261.227Z" fill="#7BF8DA"/>
<path d="M79.641 108.318C75.8847 110.493 71.9889 112.417 67.9789 114.078C64.9846 115.347 61.877 116.331 58.6976 117.015C53.1181 118.114 44.7853 119.588 37.5546 121.666C32.5203 123.098 28.0314 124.834 25.3434 126.934C25.3434 126.934 24.7558 125.237 23.9034 122.245C20.8001 111.313 18.7871 100.101 17.8938 88.7721C16.3578 67.6521 15.2595 42.8496 15.2595 42.8496C15.2595 42.8496 20.9965 37.7308 34.8051 37.5772C48.6138 37.4236 64.8992 31.8172 66.1434 32.9232C67.3875 34.0291 64.7456 72.0144 70.4864 85.6694C76.2272 99.3245 79.641 108.318 79.641 108.318Z" fill="#EFFFF7"/>
<path d="M23.907 122.246C9.74892 126.715 6.57324 121.658 6.57324 121.658C6.57324 121.658 8.10924 116.386 9.21132 106.609C10.3134 96.8325 15.2632 42.8651 15.2632 42.8651C15.2632 42.8651 16.346 67.6869 17.8974 88.7877C18.7917 100.111 20.8048 111.319 23.907 122.246Z" fill="#A9F8E9"/>
<path d="M67.9675 114.066C67.8095 117.243 67.4037 120.403 66.7541 123.517C66.7541 123.517 55.4299 126.155 48.4488 125.69C44.532 125.429 41.7403 122.971 37.5432 121.65C44.7739 119.573 53.1067 118.098 58.6863 117C61.8655 116.317 64.9731 115.335 67.9675 114.066Z" fill="#A9F8E9"/>
<path d="M84.5599 26.0075C89.2488 22.8606 94.3785 20.4264 99.7817 18.7845C108.545 16.1695 116.536 18.3237 123.916 14.9445C131.297 11.5653 134.215 11.1045 134.215 11.1045C134.215 11.1045 137.383 37.1934 137.168 49.6043C136.953 62.0152 142.118 81.7144 145.562 82.517C145.562 82.517 135.878 88.277 126.193 90.197C116.509 92.117 102.089 106.325 94.9855 106.325C94.9855 106.325 83.3887 77.3637 84.5599 58.709C85.7311 40.0542 84.5599 26.0075 84.5599 26.0075Z" fill="#EFFFF7"/>
<path d="M208.066 52.5381C208.066 52.5381 197.429 60.7173 187.099 62.4376C176.77 64.158 159.766 72.3372 159.766 72.3372C159.766 67.3874 152.662 44.3628 153.311 31.4488C153.96 18.5349 150.297 0.026123 150.297 0.026123H150.385H203.074C204.786 6.31604 205.124 15.9698 204.959 24.364C204.744 35.3272 208.066 52.5381 208.066 52.5381Z" fill="#EFFFF7"/>
<path d="M40.3426 52.327C42.9596 52.327 45.0811 50.2054 45.0811 47.5884C45.0811 44.9714 42.9596 42.8499 40.3426 42.8499C37.7255 42.8499 35.604 44.9714 35.604 47.5884C35.604 50.2054 37.7255 52.327 40.3426 52.327Z" fill="#9AF7E0"/>
<path d="M110.281 33.8218C112.898 33.8218 115.019 31.7003 115.019 29.0833C115.019 26.4663 112.898 24.3447 110.281 24.3447C107.664 24.3447 105.542 26.4663 105.542 29.0833C105.542 31.7003 107.664 33.8218 110.281 33.8218Z" fill="#9AF7E0"/>
<path d="M180.756 -0.000244141C180.755 1.25583 180.255 2.46012 179.366 3.34794C178.478 4.23576 177.273 4.73448 176.017 4.73448C175.394 4.7365 174.776 4.61555 174.2 4.37856C173.623 4.14157 173.099 3.79319 172.658 3.35338C172.216 2.91357 171.866 2.39097 171.626 1.8155C171.387 1.24003 171.264 0.623004 171.263 -0.000244141L180.756 -0.000244141Z" fill="#9AF7E0"/>
<path d="M262.563 79.3722C262.435 79.3719 262.306 79.3642 262.179 79.3491C261.778 79.2988 261.392 79.1701 261.041 78.9704C260.69 78.7706 260.383 78.5037 260.135 78.1849C259.888 77.866 259.705 77.5016 259.599 77.1123C259.492 76.7231 259.463 76.3166 259.514 75.9162L265.543 27.9699C265.645 27.1613 266.063 26.4262 266.707 25.9265C267.351 25.4267 268.167 25.2031 268.976 25.305C269.784 25.4068 270.519 25.8257 271.019 26.4695C271.519 27.1133 271.743 27.9293 271.641 28.7379L265.608 76.6842C265.515 77.4261 265.154 78.1084 264.593 78.6033C264.033 79.0981 263.311 79.3715 262.563 79.3722Z" fill="#7BF8DA"/>
<path d="M267.893 114.209C265.704 114.132 263.542 114.028 261.442 113.897C252.226 102.178 226.014 89.7746 214.098 84.5483C215.121 83.2645 216.209 82.0341 217.359 80.8619C224.098 83.8994 233.525 88.5189 244.899 95.0699C246.55 96.0171 248.241 97.0079 249.972 98.0421C257.279 102.412 263.193 108.164 267.893 114.209Z" fill="#9AF7E0"/>
<path d="M272.424 120.66C272.424 120.66 267.882 121.385 261.315 122.476C246.888 117.227 226.521 114.715 214.118 113.606C214.486 111.242 215.033 108.91 215.754 106.628C221.898 106.544 230.599 107.316 240.768 110.703C241.689 111.01 242.684 111.294 243.751 111.555C250.041 113.091 258.693 113.886 267.893 114.209C269.568 116.351 271.057 118.505 272.424 120.66Z" fill="#9AF7E0"/>
<path d="M303.835 131.327L303.286 131.573C286.087 139.099 289.957 148.127 284.366 148.127V148.097C284.366 148.054 284.34 147.974 284.309 147.851C284.309 147.797 284.282 147.739 284.263 147.67C284.221 147.494 284.159 147.267 284.09 146.994C284.044 146.837 283.998 146.664 283.948 146.476C283.46 144.702 282.527 141.622 281.037 137.782C280.96 137.586 280.884 137.398 280.803 137.187C280.634 136.761 280.461 136.327 280.277 135.882L279.866 134.895L279.651 134.392C279.139 133.209 278.583 131.983 277.984 130.713L277.708 130.148C277.485 129.691 277.255 129.231 277.02 128.762L276.875 128.482C276.675 128.098 276.468 127.691 276.26 127.288C276.176 127.134 276.099 126.984 276.018 126.827L275.984 126.765C275.728 126.269 275.455 125.771 275.166 125.272L275.085 125.118C274.26 123.643 273.38 122.154 272.428 120.652C272.428 120.652 254.196 123.567 237.964 126.458C237.964 126.458 240.133 128.647 242.983 131.834C253.22 128.586 264.437 128.72 272.424 129.484C272.424 129.484 278.898 133.324 280.649 146.86C284.502 149.401 288.077 152.34 291.317 155.627C299.444 153.808 307.094 150.29 313.765 145.305L303.835 131.327Z" fill="#9AF7E0"/>
<path d="M319.276 112.815C312.679 105.323 308.413 97.3509 303.448 89.2293C300.034 83.646 296.294 77.9935 291.237 72.3871C294.224 72.9753 297.163 73.7853 300.03 74.8101C308.194 84.1605 319.103 112.373 319.276 112.815Z" fill="#9AF7E0"/>
<path d="M317.218 81.9832C309.814 78.4849 298.916 73.7694 291.233 72.3832C290.154 71.1851 289.017 69.9909 287.807 68.7966C285.743 66.7893 283.487 64.9888 281.072 63.4206L285.895 62.5912C295.768 71.5921 311.504 72.3371 311.842 72.3525C313.727 77.379 317.087 81.8104 317.218 81.9832Z" fill="#9AF7E0"/>
<path d="M294.873 273.707V279.724C294.873 280.417 294.683 281.097 294.325 281.69C293.966 282.283 293.452 282.766 292.838 283.088L147.071 359.473C146.277 359.89 145.361 360.012 144.486 359.817C143.611 359.622 142.833 359.124 142.291 358.409L16.2963 192.932C14.9522 191.166 14.2251 189.008 14.2266 186.788V181.892L18.9267 188.067L19.8982 189.342L144.245 352.642L289.685 276.425L294.873 273.707Z" fill="#9AF7E0"/>
<path d="M384 316.269V383.988H218.054L384 316.269Z" fill="#9AF7E0"/>
</g>
<defs>
<clipPath id="clip0_198_185">
<rect width="384" height="384" rx="30" fill="white"/>
</clipPath>
</defs>
</svg>
